<svg xmlns="http://www.w3.org/2000/svg" width="640" height="360" viewBox="0 0 640 360"><rect width="640" height="360" fill="#edf0e9"/><g font-family="Arial, sans-serif" fill="#192c32"><title>Human verification in speech-resource creation</title><text x="40" y="43" font-size="11" fill="#246d65" letter-spacing="2">WENZHOUNESE SPEECH</text><rect x="40" y="82" width="210" height="67" rx="4" fill="#f8f7f3" stroke="#b7c9bd"/><text x="60" y="107" font-size="15" fill="#192c32" >Long recording</text><path d="M61 122.0 L61 130.0" stroke="#719489" stroke-width="1.5" fill="none"/><path d="M68 118.0 L68 134.0" stroke="#719489" stroke-width="1.5" fill="none"/><path d="M75 120.5 L75 131.5" stroke="#719489" stroke-width="1.5" fill="none"/><path d="M82 114.0 L82 138.0" stroke="#719489" stroke-width="1.5" fill="none"/><path d="M89 111.0 L89 141.0" stroke="#719489" stroke-width="1.5" fill="none"/><path d="M96 119.5 L96 132.5" stroke="#719489" stroke-width="1.5" fill="none"/><path d="M103 116.0 L103 136.0" stroke="#719489" stroke-width="1.5" fill="none"/><path d="M110 110.0 L110 142.0" stroke="#719489" stroke-width="1.5" fill="none"/><path d="M117 121.0 L117 131.0" stroke="#719489" stroke-width="1.5" fill="none"/><path d="M124 114.5 L124 137.5" stroke="#719489" stroke-width="1.5" fill="none"/><path d="M131 118.5 L131 133.5" stroke="#719489" stroke-width="1.5" fill="none"/><path d="M138 112.5 L138 139.5" stroke="#719489" stroke-width="1.5" fill="none"/><path d="M145 120.0 L145 132.0" stroke="#719489" stroke-width="1.5" fill="none"/><path d="M152 117.0 L152 135.0" stroke="#719489" stroke-width="1.5" fill="none"/><path d="M159 122.0 L159 130.0" stroke="#719489" stroke-width="1.5" fill="none"/><path d="M166 119.0 L166 133.0" stroke="#719489" stroke-width="1.5" fill="none"/><path d="M173 115.0 L173 137.0" stroke="#719489" stroke-width="1.5" fill="none"/><path d="M180 120.0 L180 132.0" stroke="#719489" stroke-width="1.5" fill="none"/><path d="M187 122.5 L187 129.5" stroke="#719489" stroke-width="1.5" fill="none"/><path d="M194 117.0 L194 135.0" stroke="#719489" stroke-width="1.5" fill="none"/><path d="M201 121.5 L201 130.5" stroke="#719489" stroke-width="1.5" fill="none"/><path d="M208 118.0 L208 134.0" stroke="#719489" stroke-width="1.5" fill="none"/><rect x="40" y="169" width="210" height="67" rx="4" fill="#f8f7f3" stroke="#b7c9bd"/><text x="60" y="197" font-size="15" fill="#192c32" >Phonetic proxy</text><text x="60" y="219" font-size="11" fill="#596665" >Cue for assigning reference text</text><path d="M250 116 H286 V168 H319 M250 202 H286 V168" stroke="#719489" stroke-width="1.5" fill="none"/><text x="293" y="160" font-size="23" fill="#246d65" >→</text><rect x="320" y="121" width="273" height="104" rx="4" fill="#f8f7f3" stroke="#b7c9bd"/><text x="340" y="153" font-size="21" fill="#192c32" >Human verification</text><text x="340" y="181" font-size="13" fill="#596665" >Assign text · Check boundaries</text><path d="M458 225 L458 268" stroke="#719489" stroke-width="1.5" fill="none"/><text x="447" y="260" font-size="25" fill="#246d65" >↓</text><text x="379" y="295" font-size="19" fill="#192c32" >Speech corpus</text><text x="40" y="331" font-size="12" fill="#596665" >Human expertise remains part of the data pipeline.</text></g></svg>
